{
  "version": "1.1.6",
  "modules": [
    {
      "id": 1,
      "plugin": "Core",
      "version": "1.1.6",
      "model": "AudioInterface",
      "params": [],
      "leftModuleId": 36,
      "rightModuleId": 40,
      "data": {
        "audio": {
          "driver": 7,
          "deviceName": "ASIO4ALL v2",
          "offset": 0,
          "maxChannels": 8,
          "sampleRate": 44100,
          "blockSize": 256
        }
      },
      "pos": [
        64,
        0
      ]
    },
    {
      "id": 2,
      "plugin": "Fundamental",
      "version": "1.4.0",
      "model": "VCMixer",
      "params": [
        {
          "id": 0,
          "value": 1.0
        },
        {
          "id": 1,
          "value": 0.983029425
        },
        {
          "id": 2,
          "value": 1.20789015
        },
        {
          "id": 3,
          "value": 1.0
        },
        {
          "id": 4,
          "value": 1.0
        }
      ],
      "leftModuleId": 6,
      "rightModuleId": 36,
      "pos": [
        46,
        0
      ]
    },
    {
      "id": 3,
      "plugin": "Fundamental",
      "version": "1.4.0",
      "model": "VCO",
      "params": [
        {
          "id": 0,
          "value": 1.0
        },
        {
          "id": 1,
          "value": 1.0
        },
        {
          "id": 2,
          "value": 0.0
        },
        {
          "id": 3,
          "value": 0.0
        },
        {
          "id": 4,
          "value": 0.0
        },
        {
          "id": 5,
          "value": 0.5
        },
        {
          "id": 6,
          "value": 0.0
        }
      ],
      "rightModuleId": 4,
      "pos": [
        20,
        0
      ]
    },
    {
      "id": 4,
      "plugin": "Fundamental",
      "version": "1.4.0",
      "model": "VCF",
      "params": [
        {
          "id": 0,
          "value": 0.690527797
        },
        {
          "id": 1,
          "value": 0.5
        },
        {
          "id": 2,
          "value": 0.400000006
        },
        {
          "id": 3,
          "value": -0.300000012
        },
        {
          "id": 4,
          "value": 0.0
        }
      ],
      "leftModuleId": 3,
      "rightModuleId": 6,
      "pos": [
        30,
        0
      ]
    },
    {
      "id": 6,
      "plugin": "Fundamental",
      "version": "1.4.0",
      "model": "ADSR",
      "params": [
        {
          "id": 0,
          "value": 0.622840405
        },
        {
          "id": 1,
          "value": 0.619280338
        },
        {
          "id": 2,
          "value": 0.0
        },
        {
          "id": 3,
          "value": 0.0
        }
      ],
      "leftModuleId": 4,
      "rightModuleId": 2,
      "pos": [
        38,
        0
      ]
    },
    {
      "id": 7,
      "plugin": "Fundamental",
      "version": "1.4.0",
      "model": "Scope",
      "params": [
        {
          "id": 0,
          "value": 0.0
        },
        {
          "id": 1,
          "value": 0.0
        },
        {
          "id": 2,
          "value": 0.0
        },
        {
          "id": 3,
          "value": 0.0
        },
        {
          "id": 4,
          "value": 16.0
        },
        {
          "id": 5,
          "value": 0.0
        },
        {
          "id": 6,
          "value": 0.0
        },
        {
          "id": 7,
          "value": 0.0
        }
      ],
      "leftModuleId": 35,
      "rightModuleId": 37,
      "data": {
        "lissajous": 0,
        "external": 1
      },
      "pos": [
        46,
        1
      ]
    },
    {
      "id": 29,
      "plugin": "AlgoritmArte",
      "version": "1.2.0",
      "model": "Clockkky",
      "params": [
        {
          "id": 0,
          "value": 0.938599467
        },
        {
          "id": 1,
          "value": 0.0
        },
        {
          "id": 2,
          "value": 0.0
        },
        {
          "id": 3,
          "value": 0.0
        },
        {
          "id": 4,
          "value": 0.0
        },
        {
          "id": 5,
          "value": 0.0
        },
        {
          "id": 6,
          "value": 0.0
        },
        {
          "id": 7,
          "value": 0.0
        },
        {
          "id": 8,
          "value": 0.0
        },
        {
          "id": 9,
          "value": 0.0
        },
        {
          "id": 10,
          "value": 0.0
        },
        {
          "id": 11,
          "value": 0.0
        },
        {
          "id": 12,
          "value": 0.0
        },
        {
          "id": 13,
          "value": 0.0
        },
        {
          "id": 14,
          "value": 0.0
        },
        {
          "id": 15,
          "value": 0.0
        },
        {
          "id": 16,
          "value": 0.0
        },
        {
          "id": 17,
          "value": 0.0
        },
        {
          "id": 18,
          "value": 0.0
        },
        {
          "id": 19,
          "value": 0.0
        },
        {
          "id": 20,
          "value": 0.0
        },
        {
          "id": 21,
          "value": 0.0
        },
        {
          "id": 22,
          "value": 0.0
        },
        {
          "id": 23,
          "value": 0.0
        },
        {
          "id": 24,
          "value": 0.0
        },
        {
          "id": 25,
          "value": 0.0
        },
        {
          "id": 26,
          "value": 0.0
        },
        {
          "id": 27,
          "value": 0.0
        },
        {
          "id": 28,
          "value": 8.0
        },
        {
          "id": 29,
          "value": 8.0
        },
        {
          "id": 30,
          "value": 8.0
        }
      ],
      "data": {
        "running": true,
        "steps": [
          1,
          1,
          1,
          1,
          1,
          1,
          1,
          1,
          1,
          0,
          1,
          0,
          1,
          0,
          1,
          0,
          1,
          1,
          1,
          1,
          1,
          1,
          1,
          1
        ],
        "mode": false,
        "numsteps": [
          8,
          8,
          8
        ]
      },
      "pos": [
        0,
        0
      ]
    },
    {
      "id": 30,
      "plugin": "AlgoritmArte",
      "version": "1.2.0",
      "model": "MusiFrog",
      "params": [
        {
          "id": 0,
          "value": 0.0
        },
        {
          "id": 1,
          "value": 1.0
        },
        {
          "id": 2,
          "value": 2.0
        },
        {
          "id": 3,
          "value": 2.0
        },
        {
          "id": 4,
          "value": 2.0
        },
        {
          "id": 5,
          "value": 1.0
        },
        {
          "id": 6,
          "value": 2.0
        },
        {
          "id": 7,
          "value": 1.0
        },
        {
          "id": 8,
          "value": 1.0
        },
        {
          "id": 9,
          "value": 6.0
        },
        {
          "id": 10,
          "value": 1.0
        },
        {
          "id": 11,
          "value": 1.0
        },
        {
          "id": 12,
          "value": 1.0
        },
        {
          "id": 13,
          "value": 1.0
        },
        {
          "id": 14,
          "value": 1.0
        },
        {
          "id": 15,
          "value": 1.0
        },
        {
          "id": 16,
          "value": 1.0
        },
        {
          "id": 17,
          "value": 0.0
        },
        {
          "id": 18,
          "value": 60.0
        },
        {
          "id": 19,
          "value": 0.0
        },
        {
          "id": 20,
          "value": 4.0
        },
        {
          "id": 21,
          "value": 9.0
        },
        {
          "id": 22,
          "value": 0.0
        }
      ],
      "data": {
        "holdsame": true,
        "gatemode": true,
        "scales": [
          0,
          2,
          4,
          5,
          7,
          9,
          11,
          12,
          14,
          16,
          17,
          19,
          21,
          23,
          24,
          26,
          9,
          11,
          12,
          14,
          16,
          17,
          19,
          21,
          23,
          24,
          26,
          28,
          29,
          31,
          33,
          35,
          0,
          2,
          4,
          7,
          9,
          12,
          14,
          16,
          19,
          16,
          14,
          12,
          9,
          7,
          4,
          2,
          4,
          5,
          7,
          9,
          11,
          12,
          14,
          16,
          17,
          16,
          14,
          12,
          11,
          9,
          7,
          5
        ]
      },
      "pos": [
        10,
        0
      ]
    },
    {
      "id": 31,
      "plugin": "AlgoritmArte",
      "version": "1.2.0",
      "model": "MusiFrog",
      "params": [
        {
          "id": 0,
          "value": 0.0
        },
        {
          "id": 1,
          "value": 1.0
        },
        {
          "id": 2,
          "value": 2.0
        },
        {
          "id": 3,
          "value": 2.0
        },
        {
          "id": 4,
          "value": 2.0
        },
        {
          "id": 5,
          "value": 6.0
        },
        {
          "id": 6,
          "value": 2.0
        },
        {
          "id": 7,
          "value": 1.0
        },
        {
          "id": 8,
          "value": 1.0
        },
        {
          "id": 9,
          "value": 1.0
        },
        {
          "id": 10,
          "value": 1.0
        },
        {
          "id": 11,
          "value": 1.0
        },
        {
          "id": 12,
          "value": 1.0
        },
        {
          "id": 13,
          "value": 1.0
        },
        {
          "id": 14,
          "value": 1.0
        },
        {
          "id": 15,
          "value": 1.0
        },
        {
          "id": 16,
          "value": 1.0
        },
        {
          "id": 17,
          "value": 0.0
        },
        {
          "id": 18,
          "value": 36.0
        },
        {
          "id": 19,
          "value": 0.0
        },
        {
          "id": 20,
          "value": 4.0
        },
        {
          "id": 21,
          "value": 7.0
        },
        {
          "id": 22,
          "value": 0.0
        }
      ],
      "data": {
        "holdsame": true,
        "gatemode": true,
        "scales": [
          0,
          2,
          4,
          5,
          7,
          9,
          11,
          12,
          14,
          16,
          17,
          19,
          21,
          23,
          24,
          26,
          9,
          11,
          12,
          14,
          16,
          17,
          19,
          21,
          23,
          24,
          26,
          28,
          29,
          31,
          33,
          35,
          0,
          2,
          4,
          7,
          9,
          12,
          14,
          16,
          19,
          16,
          14,
          12,
          9,
          7,
          4,
          2,
          4,
          5,
          7,
          9,
          11,
          12,
          14,
          16,
          17,
          16,
          14,
          12,
          11,
          9,
          7,
          5
        ]
      },
      "pos": [
        10,
        1
      ]
    },
    {
      "id": 32,
      "plugin": "Fundamental",
      "version": "1.4.0",
      "model": "Pulses",
      "params": [
        {
          "id": 0,
          "value": 0.0
        },
        {
          "id": 1,
          "value": 0.0
        },
        {
          "id": 2,
          "value": 0.0
        },
        {
          "id": 3,
          "value": 0.0
        },
        {
          "id": 4,
          "value": 0.0
        },
        {
          "id": 5,
          "value": 0.0
        },
        {
          "id": 6,
          "value": 0.0
        },
        {
          "id": 7,
          "value": 0.0
        },
        {
          "id": 8,
          "value": 0.0
        },
        {
          "id": 9,
          "value": 0.0
        }
      ],
      "pos": [
        0,
        1
      ]
    },
    {
      "id": 33,
      "plugin": "Fundamental",
      "version": "1.4.0",
      "model": "VCO",
      "params": [
        {
          "id": 0,
          "value": 1.0
        },
        {
          "id": 1,
          "value": 1.0
        },
        {
          "id": 2,
          "value": 0.0
        },
        {
          "id": 3,
          "value": -0.100000001
        },
        {
          "id": 4,
          "value": 0.0
        },
        {
          "id": 5,
          "value": 0.5
        },
        {
          "id": 6,
          "value": 0.0
        }
      ],
      "rightModuleId": 34,
      "pos": [
        20,
        1
      ]
    },
    {
      "id": 34,
      "plugin": "Fundamental",
      "version": "1.4.0",
      "model": "VCF",
      "params": [
        {
          "id": 0,
          "value": 1.0
        },
        {
          "id": 1,
          "value": 0.5
        },
        {
          "id": 2,
          "value": 0.0
        },
        {
          "id": 3,
          "value": 1.0
        },
        {
          "id": 4,
          "value": 0.0
        }
      ],
      "leftModuleId": 33,
      "rightModuleId": 35,
      "pos": [
        30,
        1
      ]
    },
    {
      "id": 35,
      "plugin": "Fundamental",
      "version": "1.4.0",
      "model": "ADSR",
      "params": [
        {
          "id": 0,
          "value": 0.0197953153
        },
        {
          "id": 1,
          "value": 0.626000226
        },
        {
          "id": 2,
          "value": 0.0
        },
        {
          "id": 3,
          "value": 0.0
        }
      ],
      "leftModuleId": 34,
      "rightModuleId": 7,
      "pos": [
        38,
        1
      ]
    },
    {
      "id": 36,
      "plugin": "Fundamental",
      "version": "1.4.0",
      "model": "Delay",
      "params": [
        {
          "id": 0,
          "value": 0.711274505
        },
        {
          "id": 1,
          "value": 0.400000006
        },
        {
          "id": 2,
          "value": 0.600000024
        },
        {
          "id": 3,
          "value": 0.25
        }
      ],
      "leftModuleId": 2,
      "rightModuleId": 1,
      "pos": [
        56,
        0
      ]
    },
    {
      "id": 37,
      "plugin": "Fundamental",
      "version": "1.4.0",
      "model": "Delay",
      "params": [
        {
          "id": 0,
          "value": 0.7257725
        },
        {
          "id": 1,
          "value": 0.300000012
        },
        {
          "id": 2,
          "value": 0.600000024
        },
        {
          "id": 3,
          "value": 0.25
        }
      ],
      "leftModuleId": 7,
      "rightModuleId": 39,
      "pos": [
        59,
        1
      ]
    },
    {
      "id": 38,
      "plugin": "Fundamental",
      "version": "1.4.0",
      "model": "LFO2",
      "params": [
        {
          "id": 0,
          "value": 0.0
        },
        {
          "id": 1,
          "value": 1.0
        },
        {
          "id": 2,
          "value": -3.32192802
        },
        {
          "id": 3,
          "value": 0.0
        },
        {
          "id": 4,
          "value": 0.5
        }
      ],
      "leftModuleId": 39,
      "pos": [
        75,
        1
      ]
    },
    {
      "id": 39,
      "plugin": "Fundamental",
      "version": "1.4.0",
      "model": "8vert",
      "params": [
        {
          "id": 0,
          "value": 0.200000003
        },
        {
          "id": 1,
          "value": 0.100000001
        },
        {
          "id": 2,
          "value": 0.0
        },
        {
          "id": 3,
          "value": 0.0
        },
        {
          "id": 4,
          "value": 0.0
        },
        {
          "id": 5,
          "value": 0.0
        },
        {
          "id": 6,
          "value": 0.0
        },
        {
          "id": 7,
          "value": 0.0
        }
      ],
      "leftModuleId": 37,
      "rightModuleId": 38,
      "pos": [
        67,
        1
      ]
    },
    {
      "id": 40,
      "plugin": "Core",
      "version": "1.1.6",
      "model": "Notes",
      "params": [],
      "leftModuleId": 1,
      "text": "Example patch for the\nMusiFrog module,\n\n\nwww.algoritmarte.com/musifrog/\n\nTAP the top-left button of the PULSES module to restart the sequence.",
      "pos": [
        74,
        0
      ]
    }
  ],
  "cables": [
    {
      "id": 788,
      "outputModuleId": 30,
      "outputId": 0,
      "inputModuleId": 3,
      "inputId": 0,
      "color": "#c91847"
    },
    {
      "id": 790,
      "outputModuleId": 32,
      "outputId": 0,
      "inputModuleId": 30,
      "inputId": 1,
      "color": "#c9b70e"
    },
    {
      "id": 792,
      "outputModuleId": 29,
      "outputId": 2,
      "inputModuleId": 31,
      "inputId": 0,
      "color": "#c91847"
    },
    {
      "id": 785,
      "outputModuleId": 29,
      "outputId": 1,
      "inputModuleId": 30,
      "inputId": 0,
      "color": "#c91847"
    },
    {
      "id": 793,
      "outputModuleId": 31,
      "outputId": 0,
      "inputModuleId": 33,
      "inputId": 0,
      "color": "#0986ad"
    },
    {
      "id": 795,
      "outputModuleId": 30,
      "outputId": 1,
      "inputModuleId": 6,
      "inputId": 4,
      "color": "#0c8e15"
    },
    {
      "id": 796,
      "outputModuleId": 30,
      "outputId": 1,
      "inputModuleId": 6,
      "inputId": 5,
      "color": "#c91847"
    },
    {
      "id": 797,
      "outputModuleId": 6,
      "outputId": 0,
      "inputModuleId": 2,
      "inputId": 5,
      "color": "#0986ad"
    },
    {
      "id": 798,
      "outputModuleId": 4,
      "outputId": 0,
      "inputModuleId": 2,
      "inputId": 1,
      "color": "#c91847"
    },
    {
      "id": 794,
      "outputModuleId": 33,
      "outputId": 0,
      "inputModuleId": 34,
      "inputId": 3,
      "color": "#c9b70e"
    },
    {
      "id": 799,
      "outputModuleId": 34,
      "outputId": 0,
      "inputModuleId": 2,
      "inputId": 2,
      "color": "#0986ad"
    },
    {
      "id": 800,
      "outputModuleId": 31,
      "outputId": 1,
      "inputModuleId": 35,
      "inputId": 4,
      "color": "#c9b70e"
    },
    {
      "id": 801,
      "outputModuleId": 31,
      "outputId": 1,
      "inputModuleId": 35,
      "inputId": 5,
      "color": "#0c8e15"
    },
    {
      "id": 802,
      "outputModuleId": 35,
      "outputId": 0,
      "inputModuleId": 2,
      "inputId": 6,
      "color": "#c91847"
    },
    {
      "id": 749,
      "outputModuleId": 36,
      "outputId": 0,
      "inputModuleId": 1,
      "inputId": 1,
      "color": "#c9b70e"
    },
    {
      "id": 804,
      "outputModuleId": 2,
      "outputId": 0,
      "inputModuleId": 37,
      "inputId": 4,
      "color": "#c9b70e"
    },
    {
      "id": 805,
      "outputModuleId": 37,
      "outputId": 0,
      "inputModuleId": 1,
      "inputId": 0,
      "color": "#c91847"
    },
    {
      "id": 806,
      "outputModuleId": 2,
      "outputId": 0,
      "inputModuleId": 36,
      "inputId": 4,
      "color": "#0986ad"
    },
    {
      "id": 753,
      "outputModuleId": 3,
      "outputId": 2,
      "inputModuleId": 4,
      "inputId": 3,
      "color": "#0986ad"
    },
    {
      "id": 803,
      "outputModuleId": 3,
      "outputId": 0,
      "inputModuleId": 4,
      "inputId": 0,
      "color": "#0986ad"
    },
    {
      "id": 807,
      "outputModuleId": 38,
      "outputId": 0,
      "inputModuleId": 39,
      "inputId": 0,
      "color": "#c9b70e"
    },
    {
      "id": 808,
      "outputModuleId": 38,
      "outputId": 0,
      "inputModuleId": 39,
      "inputId": 1,
      "color": "#0c8e15"
    },
    {
      "id": 809,
      "outputModuleId": 39,
      "outputId": 0,
      "inputModuleId": 37,
      "inputId": 3,
      "color": "#c91847"
    },
    {
      "id": 810,
      "outputModuleId": 39,
      "outputId": 1,
      "inputModuleId": 36,
      "inputId": 3,
      "color": "#0986ad"
    },
    {
      "id": 791,
      "outputModuleId": 32,
      "outputId": 0,
      "inputModuleId": 31,
      "inputId": 1,
      "color": "#0c8e15"
    },
    {
      "id": 789,
      "outputModuleId": 32,
      "outputId": 0,
      "inputModuleId": 29,
      "inputId": 1,
      "color": "#0986ad"
    }
  ]
}