{
  "version": "1.1.6",
  "modules": [
    {
      "id": 1,
      "plugin": "Core",
      "version": "1.1.6",
      "model": "AudioInterface",
      "params": [],
      "leftModuleId": 2,
      "rightModuleId": 8,
      "data": {
        "audio": {
          "driver": 6,
          "deviceName": "Altoparlanti / cuffie (Realtek Audio)",
          "offset": 0,
          "maxChannels": 8,
          "sampleRate": 44100,
          "blockSize": 256
        }
      },
      "pos": [
        61,
        0
      ]
    },
    {
      "id": 5,
      "plugin": "Core",
      "version": "1.1.6",
      "model": "MIDIToCVInterface",
      "params": [],
      "data": {
        "channels": 1,
        "polyMode": 0,
        "clockDivision": 24,
        "lastPitch": 8192,
        "lastMod": 0,
        "midi": {
          "driver": -11,
          "deviceName": "QWERTY keyboard (US)",
          "channel": -1
        }
      },
      "pos": [
        0,
        0
      ]
    },
    {
      "id": 8,
      "plugin": "Core",
      "version": "1.1.6",
      "model": "Notes",
      "params": [],
      "leftModuleId": 1,
      "text": "Zefiro example ..\n\nBe the modular force be with you!!!",
      "pos": [
        71,
        0
      ]
    },
    {
      "id": 21,
      "plugin": "Fundamental",
      "version": "1.4.0",
      "model": "VCO2",
      "params": [
        {
          "id": 0,
          "value": 1.0
        },
        {
          "id": 1,
          "value": 1.0
        },
        {
          "id": 2,
          "value": 0.0
        },
        {
          "id": 3,
          "value": 1.5
        },
        {
          "id": 4,
          "value": 0.0
        }
      ],
      "pos": [
        118,
        0
      ]
    },
    {
      "id": 29,
      "plugin": "AlgoritmarteWip",
      "version": "1.0.0",
      "model": "Zefiro",
      "params": [
        {
          "id": 0,
          "value": 1.0
        },
        {
          "id": 1,
          "value": 0.800000012
        },
        {
          "id": 2,
          "value": 1.0
        },
        {
          "id": 3,
          "value": 0.270345539
        },
        {
          "id": 4,
          "value": 0.377926856
        },
        {
          "id": 5,
          "value": 0.746063888
        },
        {
          "id": 6,
          "value": 1.0
        },
        {
          "id": 7,
          "value": 0.0
        },
        {
          "id": 8,
          "value": -39.7310944
        },
        {
          "id": 9,
          "value": -0.0629999936
        },
        {
          "id": 10,
          "value": 0.0
        },
        {
          "id": 11,
          "value": 1.0
        },
        {
          "id": 12,
          "value": 0.5
        },
        {
          "id": 13,
          "value": 0.0
        },
        {
          "id": 14,
          "value": 1.0
        },
        {
          "id": 15,
          "value": 1.0
        },
        {
          "id": 16,
          "value": 1.0
        },
        {
          "id": 17,
          "value": 2.0
        },
        {
          "id": 18,
          "value": 2.0
        },
        {
          "id": 19,
          "value": 0.0
        },
        {
          "id": 20,
          "value": 7.91000414
        },
        {
          "id": 21,
          "value": 1.97999954
        },
        {
          "id": 22,
          "value": 8.0
        },
        {
          "id": 23,
          "value": 1.5
        },
        {
          "id": 24,
          "value": 3.0
        },
        {
          "id": 25,
          "value": 1.0
        },
        {
          "id": 26,
          "value": -27.6389637
        },
        {
          "id": 27,
          "value": 0.0
        },
        {
          "id": 28,
          "value": 0.0
        },
        {
          "id": 29,
          "value": 10.0
        },
        {
          "id": 30,
          "value": 0.0
        },
        {
          "id": 31,
          "value": 1.0
        },
        {
          "id": 32,
          "value": 0.0
        },
        {
          "id": 33,
          "value": 0.0
        },
        {
          "id": 34,
          "value": 1.0
        },
        {
          "id": 35,
          "value": 0.729183912
        },
        {
          "id": 36,
          "value": 0.0
        },
        {
          "id": 37,
          "value": 75.0
        },
        {
          "id": 38,
          "value": 50.0
        },
        {
          "id": 39,
          "value": 740.0
        },
        {
          "id": 40,
          "value": 2.53500032
        },
        {
          "id": 41,
          "value": 4.0
        },
        {
          "id": 42,
          "value": 2.3150022
        },
        {
          "id": 43,
          "value": 4.27500153
        },
        {
          "id": 44,
          "value": 4.18500185
        },
        {
          "id": 45,
          "value": 2.0
        },
        {
          "id": 46,
          "value": 1.0
        },
        {
          "id": 47,
          "value": 1.0
        },
        {
          "id": 48,
          "value": 1.0
        },
        {
          "id": 49,
          "value": 1.0
        },
        {
          "id": 50,
          "value": 0.0
        },
        {
          "id": 51,
          "value": 0.0
        },
        {
          "id": 52,
          "value": 2.0
        },
        {
          "id": 53,
          "value": 0.0
        },
        {
          "id": 54,
          "value": 3.0
        },
        {
          "id": 55,
          "value": 0.0
        },
        {
          "id": 56,
          "value": 0.75
        }
      ],
      "pos": [
        13,
        0
      ]
    },
    {
      "id": 2,
      "plugin": "Fundamental",
      "version": "1.4.0",
      "model": "VCMixer",
      "params": [
        {
          "id": 0,
          "value": 1.0
        },
        {
          "id": 1,
          "value": 0.988535404
        },
        {
          "id": 2,
          "value": 0.987272084
        },
        {
          "id": 3,
          "value": 0.0
        },
        {
          "id": 4,
          "value": 0.0
        }
      ],
      "rightModuleId": 1,
      "pos": [
        51,
        0
      ]
    }
  ],
  "cables": [
    {
      "id": 155,
      "outputModuleId": 5,
      "outputId": 0,
      "inputModuleId": 29,
      "inputId": 4,
      "color": "#c91847"
    },
    {
      "id": 156,
      "outputModuleId": 5,
      "outputId": 1,
      "inputModuleId": 29,
      "inputId": 5,
      "color": "#0986ad"
    },
    {
      "id": 162,
      "outputModuleId": 29,
      "outputId": 5,
      "inputModuleId": 2,
      "inputId": 1,
      "color": "#0c8e15"
    },
    {
      "id": 3,
      "outputModuleId": 2,
      "outputId": 0,
      "inputModuleId": 1,
      "inputId": 1,
      "color": "#c9b70e"
    },
    {
      "id": 2,
      "outputModuleId": 2,
      "outputId": 0,
      "inputModuleId": 1,
      "inputId": 0,
      "color": "#0986ad"
    },
    {
      "id": 178,
      "outputModuleId": 29,
      "outputId": 0,
      "inputModuleId": 29,
      "inputId": 6,
      "color": "#0c8e15"
    },
    {
      "id": 183,
      "outputModuleId": 29,
      "outputId": 7,
      "inputModuleId": 29,
      "inputId": 9,
      "color": "#c9b70e"
    },
    {
      "id": 186,
      "outputModuleId": 29,
      "outputId": 3,
      "inputModuleId": 29,
      "inputId": 8,
      "color": "#0986ad"
    },
    {
      "id": 187,
      "outputModuleId": 29,
      "outputId": 4,
      "inputModuleId": 29,
      "inputId": 2,
      "color": "#c9b70e"
    },
    {
      "id": 182,
      "outputModuleId": 29,
      "outputId": 6,
      "inputModuleId": 29,
      "inputId": 3,
      "color": "#c9b70e"
    },
    {
      "id": 188,
      "outputModuleId": 29,
      "outputId": 1,
      "inputModuleId": 29,
      "inputId": 12,
      "color": "#0c8e15"
    },
    {
      "id": 189,
      "outputModuleId": 29,
      "outputId": 6,
      "inputModuleId": 29,
      "inputId": 7,
      "color": "#c91847"
    }
  ]
}